<mxfile host="Electron" agent="Mozilla/5.0 (Macintosh; Intel Mac OS X 10_15_7) AppleWebKit/537.36 (KHTML, like Gecko) draw.io/26.2.2 Chrome/134.0.6998.178 Electron/35.1.2 Safari/537.36" version="26.2.2">
  <diagram name="Reference" id="c7558073-3199-34d8-9f00-42111426c3f3">
    <mxGraphModel dx="2380" dy="1520" grid="1" gridSize="10" guides="1" tooltips="1" connect="1" arrows="1" fold="1" page="1" pageScale="1" pageWidth="826" pageHeight="1169" background="none" math="0" shadow="0">
      <root>
        <mxCell id="0" />
        <mxCell id="1" parent="0" />
        <mxCell id="z5vgwkN8koSWmknSuBFS-107" value="&lt;font style=&quot;font-size: 24px;&quot;&gt;Медикаменте Data Flow Diagram&lt;/font&gt;" style="text;html=1;align=center;verticalAlign=middle;whiteSpace=wrap;rounded=0;fillColor=default;movable=1;resizable=1;rotatable=1;deletable=1;editable=1;locked=0;connectable=1;container=0;" vertex="1" parent="1">
          <mxGeometry x="730" y="20" width="650" height="60" as="geometry" />
        </mxCell>
        <mxCell id="z5vgwkN8koSWmknSuBFS-237" value="" style="group;movable=0;resizable=0;rotatable=0;deletable=0;editable=0;locked=1;connectable=0;" vertex="1" connectable="0" parent="1">
          <mxGeometry x="10" y="30" width="220" height="440" as="geometry" />
        </mxCell>
        <mxCell id="z5vgwkN8koSWmknSuBFS-236" value="" style="rounded=0;whiteSpace=wrap;html=1;" vertex="1" parent="z5vgwkN8koSWmknSuBFS-237">
          <mxGeometry width="220" height="440.00000000000006" as="geometry" />
        </mxCell>
        <mxCell id="z5vgwkN8koSWmknSuBFS-193" value="" style="group;movable=1;resizable=1;rotatable=1;deletable=1;editable=1;locked=0;connectable=1;" vertex="1" connectable="0" parent="z5vgwkN8koSWmknSuBFS-237">
          <mxGeometry x="10" y="-19.130434782608695" width="175" height="401.7391304347826" as="geometry" />
        </mxCell>
        <mxCell id="z5vgwkN8koSWmknSuBFS-98" value="Process" style="shape=ellipse;html=1;dashed=0;whiteSpace=wrap;aspect=fixed;perimeter=ellipsePerimeter;fillColor=#f8cecc;strokeColor=#b85450;movable=1;resizable=1;rotatable=1;deletable=1;editable=1;locked=0;connectable=1;" vertex="1" parent="z5vgwkN8koSWmknSuBFS-193">
          <mxGeometry x="5" y="200.8695652173913" width="105.21739130434783" height="105.21739130434783" as="geometry" />
        </mxCell>
        <mxCell id="z5vgwkN8koSWmknSuBFS-100" value="Data Store" style="html=1;dashed=0;whiteSpace=wrap;rounded=1;fillColor=#f8cecc;strokeColor=#b85450;movable=1;resizable=1;rotatable=1;deletable=1;editable=1;locked=0;connectable=1;" vertex="1" parent="z5vgwkN8koSWmknSuBFS-193">
          <mxGeometry x="5" y="325.2173913043478" width="110" height="47.82608695652174" as="geometry" />
        </mxCell>
        <mxCell id="z5vgwkN8koSWmknSuBFS-101" value="External Entity" style="html=1;dashed=0;whiteSpace=wrap;rounded=1;fillColor=#f8cecc;strokeColor=#b85450;movable=1;resizable=1;rotatable=1;deletable=1;editable=1;locked=0;connectable=1;" vertex="1" parent="z5vgwkN8koSWmknSuBFS-193">
          <mxGeometry x="5" y="76.52173913043478" width="110" height="105.21739130434783" as="geometry" />
        </mxCell>
        <mxCell id="z5vgwkN8koSWmknSuBFS-102" value="" style="endArrow=classic;html=1;rounded=0;movable=1;resizable=1;rotatable=1;deletable=1;editable=1;locked=0;connectable=1;" edge="1" parent="z5vgwkN8koSWmknSuBFS-193">
          <mxGeometry width="50" height="50" relative="1" as="geometry">
            <mxPoint x="5" y="401.7391304347826" as="sourcePoint" />
            <mxPoint x="175" y="401.7391304347826" as="targetPoint" />
          </mxGeometry>
        </mxCell>
        <mxCell id="z5vgwkN8koSWmknSuBFS-103" value="Data Flow" style="edgeLabel;html=1;align=center;verticalAlign=middle;resizable=1;points=[];movable=1;rotatable=1;deletable=1;editable=1;locked=0;connectable=1;" vertex="1" connectable="0" parent="z5vgwkN8koSWmknSuBFS-102">
          <mxGeometry x="0.5765" y="-1" relative="1" as="geometry">
            <mxPoint x="-45" as="offset" />
          </mxGeometry>
        </mxCell>
        <mxCell id="z5vgwkN8koSWmknSuBFS-106" value="&lt;font style=&quot;font-size: 18px;&quot;&gt;Legend&lt;/font&gt;" style="text;html=1;align=center;verticalAlign=middle;whiteSpace=wrap;rounded=0;fillColor=none;movable=1;resizable=1;rotatable=1;deletable=1;editable=1;locked=0;connectable=1;" vertex="1" parent="z5vgwkN8koSWmknSuBFS-237">
          <mxGeometry width="120" height="57.391304347826086" as="geometry" />
        </mxCell>
        <mxCell id="z5vgwkN8koSWmknSuBFS-248" value="" style="group" vertex="1" connectable="0" parent="1">
          <mxGeometry x="260" y="80" width="1380" height="1040" as="geometry" />
        </mxCell>
        <mxCell id="z5vgwkN8koSWmknSuBFS-247" value="" style="rounded=0;whiteSpace=wrap;html=1;" vertex="1" parent="z5vgwkN8koSWmknSuBFS-248">
          <mxGeometry width="1380" height="1040" as="geometry" />
        </mxCell>
        <mxCell id="z5vgwkN8koSWmknSuBFS-198" style="edgeStyle=orthogonalEdgeStyle;rounded=0;orthogonalLoop=1;jettySize=auto;html=1;entryX=0.5;entryY=0;entryDx=0;entryDy=0;" edge="1" parent="z5vgwkN8koSWmknSuBFS-248" source="z5vgwkN8koSWmknSuBFS-108" target="z5vgwkN8koSWmknSuBFS-163">
          <mxGeometry relative="1" as="geometry" />
        </mxCell>
        <mxCell id="z5vgwkN8koSWmknSuBFS-108" value="Excel:&amp;nbsp;Пациенты" style="html=1;dashed=0;whiteSpace=wrap;rounded=1;fillColor=#f8cecc;strokeColor=#b85450;movable=1;resizable=1;rotatable=1;deletable=1;editable=1;locked=0;connectable=1;container=0;" vertex="1" parent="z5vgwkN8koSWmknSuBFS-248">
          <mxGeometry x="660" y="560" width="110" height="50" as="geometry" />
        </mxCell>
        <mxCell id="z5vgwkN8koSWmknSuBFS-199" style="edgeStyle=orthogonalEdgeStyle;rounded=0;orthogonalLoop=1;jettySize=auto;html=1;entryX=0.5;entryY=0;entryDx=0;entryDy=0;" edge="1" parent="z5vgwkN8koSWmknSuBFS-248" source="z5vgwkN8koSWmknSuBFS-109" target="z5vgwkN8koSWmknSuBFS-163">
          <mxGeometry relative="1" as="geometry">
            <Array as="points">
              <mxPoint x="855" y="700" />
              <mxPoint x="715" y="700" />
            </Array>
          </mxGeometry>
        </mxCell>
        <mxCell id="z5vgwkN8koSWmknSuBFS-109" value="Excel: Платежи" style="html=1;dashed=0;whiteSpace=wrap;rounded=1;fillColor=#f8cecc;strokeColor=#b85450;movable=1;resizable=1;rotatable=1;deletable=1;editable=1;locked=0;connectable=1;container=0;" vertex="1" parent="z5vgwkN8koSWmknSuBFS-248">
          <mxGeometry x="800" y="560" width="110" height="50" as="geometry" />
        </mxCell>
        <mxCell id="z5vgwkN8koSWmknSuBFS-177" style="edgeStyle=orthogonalEdgeStyle;rounded=0;orthogonalLoop=1;jettySize=auto;html=1;entryX=0.5;entryY=0;entryDx=0;entryDy=0;movable=1;resizable=1;rotatable=1;deletable=1;editable=1;locked=0;connectable=1;exitX=0.5;exitY=1;exitDx=0;exitDy=0;" edge="1" parent="z5vgwkN8koSWmknSuBFS-248" source="z5vgwkN8koSWmknSuBFS-111" target="z5vgwkN8koSWmknSuBFS-176">
          <mxGeometry relative="1" as="geometry">
            <Array as="points">
              <mxPoint x="1005" y="330" />
              <mxPoint x="1005" y="330" />
            </Array>
          </mxGeometry>
        </mxCell>
        <mxCell id="z5vgwkN8koSWmknSuBFS-111" value="ККМ" style="html=1;dashed=0;whiteSpace=wrap;rounded=1;fillColor=#f8cecc;strokeColor=#b85450;movable=1;resizable=1;rotatable=1;deletable=1;editable=1;locked=0;connectable=1;container=0;" vertex="1" parent="z5vgwkN8koSWmknSuBFS-248">
          <mxGeometry x="950" y="205" width="110" height="110" as="geometry" />
        </mxCell>
        <mxCell id="z5vgwkN8koSWmknSuBFS-136" style="edgeStyle=orthogonalEdgeStyle;rounded=0;orthogonalLoop=1;jettySize=auto;html=1;movable=1;resizable=1;rotatable=1;deletable=1;editable=1;locked=0;connectable=1;" edge="1" parent="z5vgwkN8koSWmknSuBFS-248" source="z5vgwkN8koSWmknSuBFS-116" target="z5vgwkN8koSWmknSuBFS-133">
          <mxGeometry relative="1" as="geometry" />
        </mxCell>
        <mxCell id="z5vgwkN8koSWmknSuBFS-138" style="edgeStyle=orthogonalEdgeStyle;rounded=0;orthogonalLoop=1;jettySize=auto;html=1;exitX=0.5;exitY=1;exitDx=0;exitDy=0;movable=1;resizable=1;rotatable=1;deletable=1;editable=1;locked=0;connectable=1;" edge="1" parent="z5vgwkN8koSWmknSuBFS-248" source="z5vgwkN8koSWmknSuBFS-116" target="z5vgwkN8koSWmknSuBFS-137">
          <mxGeometry relative="1" as="geometry" />
        </mxCell>
        <mxCell id="z5vgwkN8koSWmknSuBFS-116" value="Ресепшн" style="html=1;dashed=0;whiteSpace=wrap;rounded=1;fillColor=#f8cecc;strokeColor=#b85450;movable=1;resizable=1;rotatable=1;deletable=1;editable=1;locked=0;connectable=1;container=0;" vertex="1" parent="z5vgwkN8koSWmknSuBFS-248">
          <mxGeometry x="580" y="205" width="110" height="110" as="geometry" />
        </mxCell>
        <mxCell id="z5vgwkN8koSWmknSuBFS-135" style="edgeStyle=orthogonalEdgeStyle;rounded=0;orthogonalLoop=1;jettySize=auto;html=1;entryX=0.5;entryY=0;entryDx=0;entryDy=0;movable=1;resizable=1;rotatable=1;deletable=1;editable=1;locked=0;connectable=1;" edge="1" parent="z5vgwkN8koSWmknSuBFS-248" source="z5vgwkN8koSWmknSuBFS-117" target="z5vgwkN8koSWmknSuBFS-123">
          <mxGeometry relative="1" as="geometry" />
        </mxCell>
        <mxCell id="z5vgwkN8koSWmknSuBFS-200" style="edgeStyle=orthogonalEdgeStyle;rounded=0;orthogonalLoop=1;jettySize=auto;html=1;exitX=1;exitY=0.5;exitDx=0;exitDy=0;entryX=0;entryY=0.5;entryDx=0;entryDy=0;" edge="1" parent="z5vgwkN8koSWmknSuBFS-248" source="z5vgwkN8koSWmknSuBFS-117" target="z5vgwkN8koSWmknSuBFS-111">
          <mxGeometry relative="1" as="geometry" />
        </mxCell>
        <mxCell id="z5vgwkN8koSWmknSuBFS-117" value="Кассиры" style="html=1;dashed=0;whiteSpace=wrap;rounded=1;fillColor=#f8cecc;strokeColor=#b85450;movable=1;resizable=1;rotatable=1;deletable=1;editable=1;locked=0;connectable=1;container=0;" vertex="1" parent="z5vgwkN8koSWmknSuBFS-248">
          <mxGeometry x="800" y="205" width="110" height="110" as="geometry" />
        </mxCell>
        <mxCell id="z5vgwkN8koSWmknSuBFS-143" style="edgeStyle=orthogonalEdgeStyle;rounded=0;orthogonalLoop=1;jettySize=auto;html=1;movable=1;resizable=1;rotatable=1;deletable=1;editable=1;locked=0;connectable=1;" edge="1" parent="z5vgwkN8koSWmknSuBFS-248" source="z5vgwkN8koSWmknSuBFS-123" target="z5vgwkN8koSWmknSuBFS-109">
          <mxGeometry relative="1" as="geometry" />
        </mxCell>
        <mxCell id="z5vgwkN8koSWmknSuBFS-202" style="edgeStyle=orthogonalEdgeStyle;rounded=0;orthogonalLoop=1;jettySize=auto;html=1;entryX=0;entryY=0.5;entryDx=0;entryDy=0;" edge="1" parent="z5vgwkN8koSWmknSuBFS-248" source="z5vgwkN8koSWmknSuBFS-123" target="z5vgwkN8koSWmknSuBFS-128">
          <mxGeometry relative="1" as="geometry" />
        </mxCell>
        <mxCell id="z5vgwkN8koSWmknSuBFS-123" value="Ручная обработка платежей" style="shape=ellipse;html=1;dashed=0;whiteSpace=wrap;aspect=fixed;perimeter=ellipsePerimeter;fillColor=#f8cecc;strokeColor=#b85450;movable=1;resizable=1;rotatable=1;deletable=1;editable=1;locked=0;connectable=1;container=0;" vertex="1" parent="z5vgwkN8koSWmknSuBFS-248">
          <mxGeometry x="800" y="375" width="110" height="110" as="geometry" />
        </mxCell>
        <mxCell id="z5vgwkN8koSWmknSuBFS-128" value="1С Бухгалтерия предприятия" style="html=1;dashed=0;whiteSpace=wrap;rounded=1;fillColor=#f8cecc;strokeColor=#b85450;movable=1;resizable=1;rotatable=1;deletable=1;editable=1;locked=0;connectable=1;container=0;" vertex="1" parent="z5vgwkN8koSWmknSuBFS-248">
          <mxGeometry x="950" y="560" width="110" height="50" as="geometry" />
        </mxCell>
        <mxCell id="z5vgwkN8koSWmknSuBFS-141" style="edgeStyle=orthogonalEdgeStyle;rounded=0;orthogonalLoop=1;jettySize=auto;html=1;entryX=0.5;entryY=0;entryDx=0;entryDy=0;exitX=0.5;exitY=1;exitDx=0;exitDy=0;movable=1;resizable=1;rotatable=1;deletable=1;editable=1;locked=0;connectable=1;" edge="1" parent="z5vgwkN8koSWmknSuBFS-248" source="z5vgwkN8koSWmknSuBFS-129" target="z5vgwkN8koSWmknSuBFS-116">
          <mxGeometry relative="1" as="geometry">
            <Array as="points">
              <mxPoint x="745" y="160" />
              <mxPoint x="635" y="160" />
            </Array>
          </mxGeometry>
        </mxCell>
        <mxCell id="z5vgwkN8koSWmknSuBFS-216" style="edgeStyle=orthogonalEdgeStyle;rounded=0;orthogonalLoop=1;jettySize=auto;html=1;" edge="1" parent="z5vgwkN8koSWmknSuBFS-248" source="z5vgwkN8koSWmknSuBFS-129" target="z5vgwkN8koSWmknSuBFS-117">
          <mxGeometry relative="1" as="geometry">
            <Array as="points">
              <mxPoint x="745" y="160" />
              <mxPoint x="855" y="160" />
            </Array>
          </mxGeometry>
        </mxCell>
        <mxCell id="z5vgwkN8koSWmknSuBFS-225" style="edgeStyle=orthogonalEdgeStyle;rounded=0;orthogonalLoop=1;jettySize=auto;html=1;entryX=0.5;entryY=0;entryDx=0;entryDy=0;" edge="1" parent="z5vgwkN8koSWmknSuBFS-248" source="z5vgwkN8koSWmknSuBFS-129" target="z5vgwkN8koSWmknSuBFS-224">
          <mxGeometry relative="1" as="geometry" />
        </mxCell>
        <mxCell id="z5vgwkN8koSWmknSuBFS-129" value="Пациент" style="html=1;dashed=0;whiteSpace=wrap;rounded=1;fillColor=#f8cecc;strokeColor=#b85450;movable=1;resizable=1;rotatable=1;deletable=1;editable=1;locked=0;connectable=1;container=0;" vertex="1" parent="z5vgwkN8koSWmknSuBFS-248">
          <mxGeometry x="690" width="110" height="110" as="geometry" />
        </mxCell>
        <mxCell id="z5vgwkN8koSWmknSuBFS-167" style="edgeStyle=orthogonalEdgeStyle;rounded=0;orthogonalLoop=1;jettySize=auto;html=1;movable=1;resizable=1;rotatable=1;deletable=1;editable=1;locked=0;connectable=1;entryX=0.5;entryY=0;entryDx=0;entryDy=0;" edge="1" parent="z5vgwkN8koSWmknSuBFS-248" source="z5vgwkN8koSWmknSuBFS-132" target="z5vgwkN8koSWmknSuBFS-163">
          <mxGeometry relative="1" as="geometry">
            <Array as="points">
              <mxPoint x="575" y="700" />
              <mxPoint x="715" y="700" />
            </Array>
          </mxGeometry>
        </mxCell>
        <mxCell id="z5vgwkN8koSWmknSuBFS-209" style="edgeStyle=orthogonalEdgeStyle;rounded=0;orthogonalLoop=1;jettySize=auto;html=1;entryX=1;entryY=0.5;entryDx=0;entryDy=0;" edge="1" parent="z5vgwkN8koSWmknSuBFS-248" source="z5vgwkN8koSWmknSuBFS-132" target="z5vgwkN8koSWmknSuBFS-206">
          <mxGeometry relative="1" as="geometry">
            <mxPoint x="410" y="780" as="targetPoint" />
            <Array as="points">
              <mxPoint x="480" y="585" />
              <mxPoint x="480" y="825" />
            </Array>
          </mxGeometry>
        </mxCell>
        <mxCell id="z5vgwkN8koSWmknSuBFS-132" value="Excel:&amp;nbsp;Приемы" style="html=1;dashed=0;whiteSpace=wrap;rounded=1;fillColor=#f8cecc;strokeColor=#b85450;movable=1;resizable=1;rotatable=1;deletable=1;editable=1;locked=0;connectable=1;container=0;" vertex="1" parent="z5vgwkN8koSWmknSuBFS-248">
          <mxGeometry x="520" y="560" width="110" height="50" as="geometry" />
        </mxCell>
        <mxCell id="z5vgwkN8koSWmknSuBFS-139" style="edgeStyle=orthogonalEdgeStyle;rounded=0;orthogonalLoop=1;jettySize=auto;html=1;entryX=0.5;entryY=0;entryDx=0;entryDy=0;movable=1;resizable=1;rotatable=1;deletable=1;editable=1;locked=0;connectable=1;" edge="1" parent="z5vgwkN8koSWmknSuBFS-248" source="z5vgwkN8koSWmknSuBFS-133" target="z5vgwkN8koSWmknSuBFS-132">
          <mxGeometry relative="1" as="geometry" />
        </mxCell>
        <mxCell id="z5vgwkN8koSWmknSuBFS-133" value="Запись на прием" style="shape=ellipse;html=1;dashed=0;whiteSpace=wrap;aspect=fixed;perimeter=ellipsePerimeter;fillColor=#f8cecc;strokeColor=#b85450;movable=1;resizable=1;rotatable=1;deletable=1;editable=1;locked=0;connectable=1;container=0;" vertex="1" parent="z5vgwkN8koSWmknSuBFS-248">
          <mxGeometry x="520" y="375" width="110" height="110" as="geometry" />
        </mxCell>
        <mxCell id="z5vgwkN8koSWmknSuBFS-140" style="edgeStyle=orthogonalEdgeStyle;rounded=0;orthogonalLoop=1;jettySize=auto;html=1;entryX=0.5;entryY=0;entryDx=0;entryDy=0;movable=1;resizable=1;rotatable=1;deletable=1;editable=1;locked=0;connectable=1;" edge="1" parent="z5vgwkN8koSWmknSuBFS-248" source="z5vgwkN8koSWmknSuBFS-137" target="z5vgwkN8koSWmknSuBFS-108">
          <mxGeometry relative="1" as="geometry" />
        </mxCell>
        <mxCell id="z5vgwkN8koSWmknSuBFS-137" value="Заключение контракта" style="shape=ellipse;html=1;dashed=0;whiteSpace=wrap;aspect=fixed;perimeter=ellipsePerimeter;fillColor=#f8cecc;strokeColor=#b85450;movable=1;resizable=1;rotatable=1;deletable=1;editable=1;locked=0;connectable=1;container=0;" vertex="1" parent="z5vgwkN8koSWmknSuBFS-248">
          <mxGeometry x="660" y="375" width="110" height="110" as="geometry" />
        </mxCell>
        <mxCell id="z5vgwkN8koSWmknSuBFS-150" style="edgeStyle=orthogonalEdgeStyle;rounded=0;orthogonalLoop=1;jettySize=auto;html=1;entryX=0.5;entryY=0;entryDx=0;entryDy=0;exitX=0.5;exitY=1;exitDx=0;exitDy=0;movable=1;resizable=1;rotatable=1;deletable=1;editable=1;locked=0;connectable=1;" edge="1" parent="z5vgwkN8koSWmknSuBFS-248" source="z5vgwkN8koSWmknSuBFS-146" target="z5vgwkN8koSWmknSuBFS-149">
          <mxGeometry relative="1" as="geometry">
            <Array as="points">
              <mxPoint x="1235" y="340" />
              <mxPoint x="1310" y="340" />
            </Array>
          </mxGeometry>
        </mxCell>
        <mxCell id="z5vgwkN8koSWmknSuBFS-180" style="edgeStyle=orthogonalEdgeStyle;rounded=0;orthogonalLoop=1;jettySize=auto;html=1;movable=1;resizable=1;rotatable=1;deletable=1;editable=1;locked=0;connectable=1;exitX=0.5;exitY=1;exitDx=0;exitDy=0;" edge="1" parent="z5vgwkN8koSWmknSuBFS-248" source="z5vgwkN8koSWmknSuBFS-146" target="z5vgwkN8koSWmknSuBFS-179">
          <mxGeometry relative="1" as="geometry">
            <Array as="points">
              <mxPoint x="1235" y="340" />
              <mxPoint x="1165" y="340" />
            </Array>
          </mxGeometry>
        </mxCell>
        <mxCell id="z5vgwkN8koSWmknSuBFS-146" value="Бухгалтерия" style="html=1;dashed=0;whiteSpace=wrap;rounded=1;fillColor=#f8cecc;strokeColor=#b85450;movable=1;resizable=1;rotatable=1;deletable=1;editable=1;locked=0;connectable=1;container=0;" vertex="1" parent="z5vgwkN8koSWmknSuBFS-248">
          <mxGeometry x="1180" y="205" width="110" height="110" as="geometry" />
        </mxCell>
        <mxCell id="z5vgwkN8koSWmknSuBFS-201" style="edgeStyle=orthogonalEdgeStyle;rounded=0;orthogonalLoop=1;jettySize=auto;html=1;entryX=1;entryY=0.5;entryDx=0;entryDy=0;" edge="1" parent="z5vgwkN8koSWmknSuBFS-248" source="z5vgwkN8koSWmknSuBFS-149" target="z5vgwkN8koSWmknSuBFS-128">
          <mxGeometry relative="1" as="geometry">
            <Array as="points">
              <mxPoint x="1310" y="585" />
            </Array>
          </mxGeometry>
        </mxCell>
        <mxCell id="z5vgwkN8koSWmknSuBFS-149" value="Выплаты зарплат и оплата налогов" style="shape=ellipse;html=1;dashed=0;whiteSpace=wrap;aspect=fixed;perimeter=ellipsePerimeter;fillColor=#f8cecc;strokeColor=#b85450;movable=1;resizable=1;rotatable=1;deletable=1;editable=1;locked=0;connectable=1;container=0;" vertex="1" parent="z5vgwkN8koSWmknSuBFS-248">
          <mxGeometry x="1255" y="375" width="110" height="110" as="geometry" />
        </mxCell>
        <mxCell id="z5vgwkN8koSWmknSuBFS-152" value="1С Торговля и склад" style="html=1;dashed=0;whiteSpace=wrap;rounded=1;fillColor=#f8cecc;strokeColor=#b85450;movable=1;resizable=1;rotatable=1;deletable=1;editable=1;locked=0;connectable=1;container=0;" vertex="1" parent="z5vgwkN8koSWmknSuBFS-248">
          <mxGeometry x="950" y="620" width="110" height="50" as="geometry" />
        </mxCell>
        <mxCell id="z5vgwkN8koSWmknSuBFS-155" style="edgeStyle=orthogonalEdgeStyle;rounded=0;orthogonalLoop=1;jettySize=auto;html=1;entryX=0.5;entryY=1;entryDx=0;entryDy=0;movable=1;resizable=1;rotatable=1;deletable=1;editable=1;locked=0;connectable=1;" edge="1" parent="z5vgwkN8koSWmknSuBFS-248" source="z5vgwkN8koSWmknSuBFS-153" target="z5vgwkN8koSWmknSuBFS-154">
          <mxGeometry relative="1" as="geometry" />
        </mxCell>
        <mxCell id="z5vgwkN8koSWmknSuBFS-158" style="edgeStyle=orthogonalEdgeStyle;rounded=0;orthogonalLoop=1;jettySize=auto;html=1;exitX=0.5;exitY=0;exitDx=0;exitDy=0;entryX=0.5;entryY=1;entryDx=0;entryDy=0;movable=1;resizable=1;rotatable=1;deletable=1;editable=1;locked=0;connectable=1;" edge="1" parent="z5vgwkN8koSWmknSuBFS-248" source="z5vgwkN8koSWmknSuBFS-153" target="z5vgwkN8koSWmknSuBFS-157">
          <mxGeometry relative="1" as="geometry" />
        </mxCell>
        <mxCell id="z5vgwkN8koSWmknSuBFS-153" value="Сотрудники учета ТМЦ" style="html=1;dashed=0;whiteSpace=wrap;rounded=1;fillColor=#f8cecc;strokeColor=#b85450;movable=1;resizable=1;rotatable=1;deletable=1;editable=1;locked=0;connectable=1;container=0;" vertex="1" parent="z5vgwkN8koSWmknSuBFS-248">
          <mxGeometry x="979" y="919" width="110" height="110" as="geometry" />
        </mxCell>
        <mxCell id="z5vgwkN8koSWmknSuBFS-160" style="edgeStyle=orthogonalEdgeStyle;rounded=0;orthogonalLoop=1;jettySize=auto;html=1;exitX=0.5;exitY=0;exitDx=0;exitDy=0;entryX=0.5;entryY=1;entryDx=0;entryDy=0;movable=1;resizable=1;rotatable=1;deletable=1;editable=1;locked=0;connectable=1;" edge="1" parent="z5vgwkN8koSWmknSuBFS-248" source="z5vgwkN8koSWmknSuBFS-154" target="z5vgwkN8koSWmknSuBFS-152">
          <mxGeometry relative="1" as="geometry" />
        </mxCell>
        <mxCell id="z5vgwkN8koSWmknSuBFS-154" value="Учет ТМЦ" style="shape=ellipse;html=1;dashed=0;whiteSpace=wrap;aspect=fixed;perimeter=ellipsePerimeter;fillColor=#f8cecc;strokeColor=#b85450;movable=1;resizable=1;rotatable=1;deletable=1;editable=1;locked=0;connectable=1;container=0;" vertex="1" parent="z5vgwkN8koSWmknSuBFS-248">
          <mxGeometry x="910" y="722" width="110" height="110" as="geometry" />
        </mxCell>
        <mxCell id="z5vgwkN8koSWmknSuBFS-161" style="edgeStyle=orthogonalEdgeStyle;rounded=0;orthogonalLoop=1;jettySize=auto;html=1;exitX=0.5;exitY=0;exitDx=0;exitDy=0;entryX=0.5;entryY=1;entryDx=0;entryDy=0;movable=1;resizable=1;rotatable=1;deletable=1;editable=1;locked=0;connectable=1;" edge="1" parent="z5vgwkN8koSWmknSuBFS-248" source="z5vgwkN8koSWmknSuBFS-157" target="z5vgwkN8koSWmknSuBFS-152">
          <mxGeometry relative="1" as="geometry">
            <mxPoint x="1095" y="772" as="targetPoint" />
          </mxGeometry>
        </mxCell>
        <mxCell id="z5vgwkN8koSWmknSuBFS-157" value="Закупка оборудования" style="shape=ellipse;html=1;dashed=0;whiteSpace=wrap;aspect=fixed;perimeter=ellipsePerimeter;fillColor=#f8cecc;strokeColor=#b85450;movable=1;resizable=1;rotatable=1;deletable=1;editable=1;locked=0;connectable=1;container=0;" vertex="1" parent="z5vgwkN8koSWmknSuBFS-248">
          <mxGeometry x="1040" y="722" width="110" height="110" as="geometry" />
        </mxCell>
        <mxCell id="z5vgwkN8koSWmknSuBFS-212" style="edgeStyle=orthogonalEdgeStyle;rounded=0;orthogonalLoop=1;jettySize=auto;html=1;entryX=1;entryY=0.5;entryDx=0;entryDy=0;" edge="1" parent="z5vgwkN8koSWmknSuBFS-248" source="z5vgwkN8koSWmknSuBFS-163" target="z5vgwkN8koSWmknSuBFS-171">
          <mxGeometry relative="1" as="geometry" />
        </mxCell>
        <mxCell id="z5vgwkN8koSWmknSuBFS-163" value="Подготовка отчетов" style="shape=ellipse;html=1;dashed=0;whiteSpace=wrap;aspect=fixed;perimeter=ellipsePerimeter;fillColor=#f8cecc;strokeColor=#b85450;movable=1;resizable=1;rotatable=1;deletable=1;editable=1;locked=0;connectable=1;container=0;" vertex="1" parent="z5vgwkN8koSWmknSuBFS-248">
          <mxGeometry x="660" y="722" width="110" height="110" as="geometry" />
        </mxCell>
        <mxCell id="z5vgwkN8koSWmknSuBFS-165" style="edgeStyle=orthogonalEdgeStyle;rounded=0;orthogonalLoop=1;jettySize=auto;html=1;entryX=0.5;entryY=1;entryDx=0;entryDy=0;movable=1;resizable=1;rotatable=1;deletable=1;editable=1;locked=0;connectable=1;" edge="1" parent="z5vgwkN8koSWmknSuBFS-248" source="z5vgwkN8koSWmknSuBFS-164" target="z5vgwkN8koSWmknSuBFS-163">
          <mxGeometry relative="1" as="geometry" />
        </mxCell>
        <mxCell id="z5vgwkN8koSWmknSuBFS-164" value="IT-отдел" style="html=1;dashed=0;whiteSpace=wrap;rounded=1;fillColor=#f8cecc;strokeColor=#b85450;movable=1;resizable=1;rotatable=1;deletable=1;editable=1;locked=0;connectable=1;container=0;" vertex="1" parent="z5vgwkN8koSWmknSuBFS-248">
          <mxGeometry x="660" y="919" width="110" height="110" as="geometry" />
        </mxCell>
        <mxCell id="z5vgwkN8koSWmknSuBFS-214" style="edgeStyle=orthogonalEdgeStyle;rounded=0;orthogonalLoop=1;jettySize=auto;html=1;entryX=0.5;entryY=0;entryDx=0;entryDy=0;" edge="1" parent="z5vgwkN8koSWmknSuBFS-248" source="z5vgwkN8koSWmknSuBFS-171" target="z5vgwkN8koSWmknSuBFS-213">
          <mxGeometry relative="1" as="geometry" />
        </mxCell>
        <mxCell id="z5vgwkN8koSWmknSuBFS-171" value="Excel: Отчеты" style="html=1;dashed=0;whiteSpace=wrap;rounded=1;fillColor=#f8cecc;strokeColor=#b85450;movable=1;resizable=1;rotatable=1;deletable=1;editable=1;locked=0;connectable=1;container=0;" vertex="1" parent="z5vgwkN8koSWmknSuBFS-248">
          <mxGeometry x="520" y="752" width="110" height="50" as="geometry" />
        </mxCell>
        <mxCell id="z5vgwkN8koSWmknSuBFS-185" style="edgeStyle=orthogonalEdgeStyle;rounded=0;orthogonalLoop=1;jettySize=auto;html=1;entryX=0;entryY=0.5;entryDx=0;entryDy=0;exitX=1;exitY=0.5;exitDx=0;exitDy=0;movable=1;resizable=1;rotatable=1;deletable=1;editable=1;locked=0;connectable=1;" edge="1" parent="z5vgwkN8koSWmknSuBFS-248" source="z5vgwkN8koSWmknSuBFS-173" target="z5vgwkN8koSWmknSuBFS-205">
          <mxGeometry relative="1" as="geometry">
            <mxPoint x="260" y="430" as="targetPoint" />
          </mxGeometry>
        </mxCell>
        <mxCell id="z5vgwkN8koSWmknSuBFS-189" style="edgeStyle=orthogonalEdgeStyle;rounded=0;orthogonalLoop=1;jettySize=auto;html=1;movable=1;resizable=1;rotatable=1;deletable=1;editable=1;locked=0;connectable=1;entryX=0;entryY=0.5;entryDx=0;entryDy=0;" edge="1" parent="z5vgwkN8koSWmknSuBFS-248" source="z5vgwkN8koSWmknSuBFS-173" target="z5vgwkN8koSWmknSuBFS-206">
          <mxGeometry relative="1" as="geometry">
            <mxPoint x="260" y="595" as="targetPoint" />
          </mxGeometry>
        </mxCell>
        <mxCell id="z5vgwkN8koSWmknSuBFS-226" style="edgeStyle=orthogonalEdgeStyle;rounded=0;orthogonalLoop=1;jettySize=auto;html=1;entryX=0;entryY=0.5;entryDx=0;entryDy=0;exitX=0.5;exitY=0;exitDx=0;exitDy=0;" edge="1" parent="z5vgwkN8koSWmknSuBFS-248" source="z5vgwkN8koSWmknSuBFS-173" target="z5vgwkN8koSWmknSuBFS-224">
          <mxGeometry relative="1" as="geometry" />
        </mxCell>
        <mxCell id="z5vgwkN8koSWmknSuBFS-232" style="edgeStyle=orthogonalEdgeStyle;rounded=0;orthogonalLoop=1;jettySize=auto;html=1;entryX=0;entryY=0.5;entryDx=0;entryDy=0;" edge="1" parent="z5vgwkN8koSWmknSuBFS-248" source="z5vgwkN8koSWmknSuBFS-173" target="z5vgwkN8koSWmknSuBFS-218">
          <mxGeometry relative="1" as="geometry">
            <mxPoint x="200" y="615" as="targetPoint" />
            <Array as="points">
              <mxPoint x="55" y="350" />
              <mxPoint x="350" y="350" />
              <mxPoint x="350" y="430" />
            </Array>
          </mxGeometry>
        </mxCell>
        <mxCell id="z5vgwkN8koSWmknSuBFS-173" value="Медицинские специалисты" style="html=1;dashed=0;whiteSpace=wrap;rounded=1;fillColor=#f8cecc;strokeColor=#b85450;movable=1;resizable=1;rotatable=1;deletable=1;editable=1;locked=0;connectable=1;container=0;" vertex="1" parent="z5vgwkN8koSWmknSuBFS-248">
          <mxGeometry y="560" width="110" height="110" as="geometry" />
        </mxCell>
        <mxCell id="z5vgwkN8koSWmknSuBFS-178" style="edgeStyle=orthogonalEdgeStyle;rounded=0;orthogonalLoop=1;jettySize=auto;html=1;movable=1;resizable=1;rotatable=1;deletable=1;editable=1;locked=0;connectable=1;" edge="1" parent="z5vgwkN8koSWmknSuBFS-248" source="z5vgwkN8koSWmknSuBFS-176" target="z5vgwkN8koSWmknSuBFS-128">
          <mxGeometry relative="1" as="geometry" />
        </mxCell>
        <mxCell id="z5vgwkN8koSWmknSuBFS-176" value="Автоматическая обработка платежей" style="shape=ellipse;html=1;dashed=0;whiteSpace=wrap;aspect=fixed;perimeter=ellipsePerimeter;fillColor=#f8cecc;strokeColor=#b85450;movable=1;resizable=1;rotatable=1;deletable=1;editable=1;locked=0;connectable=1;container=0;" vertex="1" parent="z5vgwkN8koSWmknSuBFS-248">
          <mxGeometry x="950" y="375" width="110" height="110" as="geometry" />
        </mxCell>
        <mxCell id="z5vgwkN8koSWmknSuBFS-181" style="edgeStyle=orthogonalEdgeStyle;rounded=0;orthogonalLoop=1;jettySize=auto;html=1;entryX=1;entryY=0.5;entryDx=0;entryDy=0;exitX=0.5;exitY=1;exitDx=0;exitDy=0;movable=1;resizable=1;rotatable=1;deletable=1;editable=1;locked=0;connectable=1;" edge="1" parent="z5vgwkN8koSWmknSuBFS-248" source="z5vgwkN8koSWmknSuBFS-179" target="z5vgwkN8koSWmknSuBFS-128">
          <mxGeometry relative="1" as="geometry" />
        </mxCell>
        <mxCell id="z5vgwkN8koSWmknSuBFS-179" value="Работа с платежами" style="shape=ellipse;html=1;dashed=0;whiteSpace=wrap;aspect=fixed;perimeter=ellipsePerimeter;fillColor=#f8cecc;strokeColor=#b85450;movable=1;resizable=1;rotatable=1;deletable=1;editable=1;locked=0;connectable=1;container=0;" vertex="1" parent="z5vgwkN8koSWmknSuBFS-248">
          <mxGeometry x="1110" y="375" width="110" height="110" as="geometry" />
        </mxCell>
        <mxCell id="z5vgwkN8koSWmknSuBFS-208" style="edgeStyle=orthogonalEdgeStyle;rounded=0;orthogonalLoop=1;jettySize=auto;html=1;entryX=0.5;entryY=0;entryDx=0;entryDy=0;" edge="1" parent="z5vgwkN8koSWmknSuBFS-248" source="z5vgwkN8koSWmknSuBFS-205" target="z5vgwkN8koSWmknSuBFS-207">
          <mxGeometry relative="1" as="geometry" />
        </mxCell>
        <mxCell id="z5vgwkN8koSWmknSuBFS-205" value="Заполнение медицинских карт" style="shape=ellipse;html=1;dashed=0;whiteSpace=wrap;aspect=fixed;perimeter=ellipsePerimeter;fillColor=#f8cecc;strokeColor=#b85450;movable=1;resizable=1;rotatable=1;deletable=1;editable=1;locked=0;connectable=1;container=0;" vertex="1" parent="z5vgwkN8koSWmknSuBFS-248">
          <mxGeometry x="210" y="375" width="110" height="110" as="geometry" />
        </mxCell>
        <mxCell id="z5vgwkN8koSWmknSuBFS-206" value="Прием паценитов" style="shape=ellipse;html=1;dashed=0;whiteSpace=wrap;aspect=fixed;perimeter=ellipsePerimeter;fillColor=#f8cecc;strokeColor=#b85450;movable=1;resizable=1;rotatable=1;deletable=1;editable=1;locked=0;connectable=1;container=0;" vertex="1" parent="z5vgwkN8koSWmknSuBFS-248">
          <mxGeometry x="210" y="770" width="110" height="110" as="geometry" />
        </mxCell>
        <mxCell id="z5vgwkN8koSWmknSuBFS-210" style="edgeStyle=orthogonalEdgeStyle;rounded=0;orthogonalLoop=1;jettySize=auto;html=1;" edge="1" parent="z5vgwkN8koSWmknSuBFS-248" source="z5vgwkN8koSWmknSuBFS-207" target="z5vgwkN8koSWmknSuBFS-206">
          <mxGeometry relative="1" as="geometry" />
        </mxCell>
        <mxCell id="z5vgwkN8koSWmknSuBFS-207" value="Медицинские карты" style="html=1;dashed=0;whiteSpace=wrap;rounded=1;fillColor=#f8cecc;strokeColor=#b85450;movable=1;resizable=1;rotatable=1;deletable=1;editable=1;locked=0;connectable=1;container=0;" vertex="1" parent="z5vgwkN8koSWmknSuBFS-248">
          <mxGeometry x="210" y="590" width="110" height="50" as="geometry" />
        </mxCell>
        <mxCell id="z5vgwkN8koSWmknSuBFS-213" value="Руководство компании" style="html=1;dashed=0;whiteSpace=wrap;rounded=1;fillColor=#f8cecc;strokeColor=#b85450;movable=1;resizable=1;rotatable=1;deletable=1;editable=1;locked=0;connectable=1;container=0;" vertex="1" parent="z5vgwkN8koSWmknSuBFS-248">
          <mxGeometry x="520" y="919" width="110" height="110" as="geometry" />
        </mxCell>
        <mxCell id="z5vgwkN8koSWmknSuBFS-222" style="edgeStyle=orthogonalEdgeStyle;rounded=0;orthogonalLoop=1;jettySize=auto;html=1;" edge="1" parent="z5vgwkN8koSWmknSuBFS-248" source="z5vgwkN8koSWmknSuBFS-217" target="z5vgwkN8koSWmknSuBFS-218">
          <mxGeometry relative="1" as="geometry" />
        </mxCell>
        <mxCell id="z5vgwkN8koSWmknSuBFS-217" value="Лаборатория" style="html=1;dashed=0;whiteSpace=wrap;rounded=1;fillColor=#f8cecc;strokeColor=#b85450;movable=1;resizable=1;rotatable=1;deletable=1;editable=1;locked=0;connectable=1;container=0;" vertex="1" parent="z5vgwkN8koSWmknSuBFS-248">
          <mxGeometry x="380" y="205" width="110" height="110" as="geometry" />
        </mxCell>
        <mxCell id="z5vgwkN8koSWmknSuBFS-233" style="edgeStyle=orthogonalEdgeStyle;rounded=0;orthogonalLoop=1;jettySize=auto;html=1;entryX=1;entryY=0.5;entryDx=0;entryDy=0;exitX=0.5;exitY=1;exitDx=0;exitDy=0;" edge="1" parent="z5vgwkN8koSWmknSuBFS-248" source="z5vgwkN8koSWmknSuBFS-218" target="z5vgwkN8koSWmknSuBFS-207">
          <mxGeometry relative="1" as="geometry" />
        </mxCell>
        <mxCell id="z5vgwkN8koSWmknSuBFS-218" value="Обработка результатов анализов и занесение в мед. карту из почты" style="shape=ellipse;html=1;dashed=0;whiteSpace=wrap;aspect=fixed;perimeter=ellipsePerimeter;fillColor=#f8cecc;strokeColor=#b85450;movable=1;resizable=1;rotatable=1;deletable=1;editable=1;locked=0;connectable=1;container=0;" vertex="1" parent="z5vgwkN8koSWmknSuBFS-248">
          <mxGeometry x="380" y="375" width="110" height="110" as="geometry" />
        </mxCell>
        <mxCell id="z5vgwkN8koSWmknSuBFS-229" value="" style="edgeStyle=orthogonalEdgeStyle;rounded=0;orthogonalLoop=1;jettySize=auto;html=1;" edge="1" parent="z5vgwkN8koSWmknSuBFS-248" source="z5vgwkN8koSWmknSuBFS-224" target="z5vgwkN8koSWmknSuBFS-227">
          <mxGeometry relative="1" as="geometry" />
        </mxCell>
        <mxCell id="z5vgwkN8koSWmknSuBFS-224" value="Назначение и сдача анализов" style="shape=ellipse;html=1;dashed=0;whiteSpace=wrap;aspect=fixed;perimeter=ellipsePerimeter;fillColor=#f8cecc;strokeColor=#b85450;movable=1;resizable=1;rotatable=1;deletable=1;editable=1;locked=0;connectable=1;container=0;" vertex="1" parent="z5vgwkN8koSWmknSuBFS-248">
          <mxGeometry x="80" y="205" width="110" height="110" as="geometry" />
        </mxCell>
        <mxCell id="z5vgwkN8koSWmknSuBFS-230" value="" style="edgeStyle=orthogonalEdgeStyle;rounded=0;orthogonalLoop=1;jettySize=auto;html=1;" edge="1" parent="z5vgwkN8koSWmknSuBFS-248" source="z5vgwkN8koSWmknSuBFS-227" target="z5vgwkN8koSWmknSuBFS-217">
          <mxGeometry relative="1" as="geometry" />
        </mxCell>
        <mxCell id="z5vgwkN8koSWmknSuBFS-227" value="Отправка данных в лабораторию" style="shape=ellipse;html=1;dashed=0;whiteSpace=wrap;aspect=fixed;perimeter=ellipsePerimeter;fillColor=#f8cecc;strokeColor=#b85450;movable=1;resizable=1;rotatable=1;deletable=1;editable=1;locked=0;connectable=1;container=0;direction=south;" vertex="1" parent="z5vgwkN8koSWmknSuBFS-248">
          <mxGeometry x="230" y="205" width="110" height="110" as="geometry" />
        </mxCell>
      </root>
    </mxGraphModel>
  </diagram>
</mxfile>
